<?xml version="1.0" standalone="no"?>
<!DOCTYPE svg PUBLIC "-//W3C//DTD SVG 20010904//EN"
 "http://www.w3.org/TR/2001/REC-SVG-20010904/DTD/svg10.dtd">
<svg version="1.0" xmlns="http://www.w3.org/2000/svg"
 width="853.000000pt" height="853.000000pt" viewBox="0 0 853.000000 853.000000"
 preserveAspectRatio="xMidYMid meet">
<metadata>
Created by potrace 1.11, written by Peter Selinger 2001-2013
</metadata>
<g transform="translate(0.000000,853.000000) scale(0.100000,-0.100000)"
fill="#000000" stroke="none">
<path d="M4180 7850 c-7 -14 -10 -194 -10 -586 1 -311 -1 -569 -5 -572 -4 -4
-91 -9 -193 -12 l-187 -5 -3 -1165 c-1 -786 -6 -1168 -13 -1175 -6 -6 -86 -12
-192 -15 l-182 -5 -3 -378 c-1 -246 -6 -376 -12 -372 -6 3 -10 -1 -10 -9 0 -9
-6 -16 -12 -16 -140 -3 -431 1 -438 5 -7 4 -10 279 -10 753 1 674 2 748 17
764 15 17 15 18 0 18 -14 0 -41 33 -42 52 -1 18 -15 17 -25 -2 -12 -22 -16
-22 -126 -18 -86 3 -117 1 -125 -9 -8 -9 -10 -134 -8 -405 5 -456 5 -1409 1
-1713 -3 -175 -6 -213 -19 -227 -14 -16 -37 -18 -195 -18 l-178 0 0 -183 c0
-129 -4 -187 -12 -195 -18 -18 -441 -17 -457 2 -8 10 -11 222 -10 784 0 424
-1 775 -4 779 -3 4 -71 7 -152 6 -124 -1 -150 -4 -164 -18 -12 -13 -13 -19 -4
-22 10 -3 12 -207 13 -913 0 -499 3 -915 6 -924 6 -14 82 -16 781 -16 696 0
775 -2 769 -16 -3 -8 -2 -12 4 -9 6 3 8 -136 7 -369 -2 -346 -1 -375 15 -385
25 -16 684 -15 694 0 4 7 8 92 9 190 1 99 5 182 9 186 4 5 103 9 220 11 181 3
214 1 225 -12 10 -12 13 -100 12 -384 -1 -304 1 -372 13 -381 9 -8 59 -11 152
-9 l139 3 3 374 c2 331 4 377 19 393 15 16 36 18 219 18 218 0 227 -2 240 -54
3 -12 3 -91 1 -174 -4 -168 -2 -174 54 -171 19 0 169 0 333 0 242 -2 302 1
313 12 11 11 14 84 14 389 0 331 2 377 15 382 9 3 359 6 779 6 686 0 763 2
769 16 3 9 6 247 6 530 0 341 3 513 10 509 6 -3 10 -1 10 4 0 6 -4 11 -10 11
-6 0 -10 139 -10 398 0 368 -1 400 -17 414 -14 11 -46 14 -151 12 -74 -1 -137
-5 -140 -9 -10 -9 -19 -734 -10 -748 4 -7 8 -190 8 -407 0 -295 -3 -399 -12
-408 -18 -18 -441 -17 -457 1 -6 8 -12 81 -13 193 l-3 179 -180 5 c-99 3 -186
9 -193 13 -9 6 -12 252 -12 1174 1 705 -3 1170 -9 1176 -5 5 -70 9 -146 9
-122 1 -139 -2 -153 -18 -16 -17 -16 -55 -11 -419 9 -557 10 -1100 3 -1119 -5
-14 -36 -16 -235 -16 -126 0 -230 1 -231 3 -1 1 -5 175 -8 387 l-5 385 -180 3
c-169 2 -181 3 -197 23 -17 20 -18 91 -18 1180 l0 1159 -178 0 c-160 0 -181 2
-195 18 -15 17 -17 76 -19 593 l-3 574 -142 3 c-134 2 -143 1 -153 -18z"/>
<path d="M2930 5140 c0 -5 5 -10 10 -10 6 0 10 5 10 10 0 6 -4 10 -10 10 -5 0
-10 -4 -10 -10z"/>
</g>
</svg>
